<?xml version="1.0" standalone="no"?>
<!DOCTYPE svg PUBLIC "-//W3C//DTD SVG 20010904//EN"
 "http://www.w3.org/TR/2001/REC-SVG-20010904/DTD/svg10.dtd">
<svg version="1.0" xmlns="http://www.w3.org/2000/svg"
 width="260.000000pt" height="260.000000pt" viewBox="0 0 260.000000 260.000000"
 preserveAspectRatio="xMidYMid meet">
<metadata>
Created by potrace 1.14, written by Peter Selinger 2001-2017
</metadata>
<g transform="translate(0.000000,260.000000) scale(0.100000,-0.100000)"
fill="#000000" stroke="none">
<path d="M1150 2561 c-123 -40 -219 -122 -272 -233 l-33 -68 -40 6 c-170 28
-298 -25 -379 -156 -35 -56 -51 -119 -51 -203 0 -44 -4 -77 -10 -77 -26 0
-115 -52 -162 -94 -36 -33 -64 -71 -90 -123 -33 -68 -37 -84 -40 -167 -3 -101
10 -157 53 -237 32 -57 104 -128 160 -157 51 -26 154 -46 203 -39 36 4 42 2
85 -43 26 -27 75 -65 109 -84 34 -20 91 -63 127 -96 76 -71 158 -134 313 -240
125 -85 151 -117 149 -189 -1 -85 -56 -300 -80 -315 -4 -2 -111 -7 -237 -10
-126 -4 -231 -9 -233 -11 -3 -2 298 -4 668 -5 371 0 672 2 669 4 -2 3 -106 7
-230 9 -125 2 -232 7 -238 11 -45 28 -91 233 -96 431 -2 89 6 125 41 172 36
48 252 187 392 253 34 16 83 44 108 61 30 20 71 37 117 46 162 33 286 143 348
308 18 48 23 81 24 165 0 126 -19 195 -81 288 -29 42 -41 70 -38 85 3 12 5 50
5 85 0 155 -86 299 -217 363 -53 26 -81 33 -147 37 -45 2 -86 8 -92 12 -28 22
-109 59 -152 69 -50 12 -150 10 -172 -3 -7 -5 -30 9 -59 36 -92 86 -167 118
-287 123 -57 3 -96 -1 -135 -14z m149 -876 c6 -34 11 -71 11 -83 0 -29 13 -34
57 -23 160 41 217 0 219 -159 4 -210 -133 -365 -271 -307 -24 11 -36 10 -70
-2 -87 -31 -160 17 -205 135 -32 82 -34 233 -5 283 43 72 96 88 200 59 69 -20
67 -21 59 30 -4 26 -13 64 -20 86 -17 47 -17 43 0 43 10 0 18 -20 25 -62z
m293 -777 c32 -13 58 -29 58 -36 0 -22 -70 -120 -101 -143 -52 -37 -61 -23
-56 90 5 103 11 126 31 117 6 -3 37 -15 68 -28z m182 -37 c14 -1 8 -10 -25
-34 -88 -67 -118 -74 -88 -19 31 54 35 58 66 56 15 -1 37 -3 47 -3z m-858 -81
c12 -34 18 -59 14 -58 -10 4 -120 108 -120 114 0 2 19 4 43 4 l42 0 21 -60z
m110 16 l60 -20 78 -117 c43 -65 77 -121 76 -126 -1 -4 -9 -7 -18 -5 -22 5
-158 94 -200 132 -32 29 -71 94 -76 124 -1 9 -5 19 -9 22 -14 14 -7 26 11 18
9 -4 44 -17 78 -28z m255 -28 c4 -44 -1 -132 -9 -140 -17 -17 -92 84 -92 126
0 23 99 36 101 14z"/>
<path d="M2078 23 c6 -2 18 -2 25 0 6 3 1 5 -13 5 -14 0 -19 -2 -12 -5z"/>
</g>
</svg>
