<?xml version="1.0" encoding="UTF-8" standalone="no"?>
<svg
   width="24"
   height="24"
   viewBox="0 0 24 24"
   version="1.1"
   id="svg8"
   inkscape:version="1.1.2 (0a00cf5339, 2022-02-04, custom)"
   sodipodi:docname="icons.svg"
   inkscape:export-filename="H:\Cloud\Misc\HeyApple\FaviconAndroid.png"
   inkscape:export-xdpi="48.750004"
   inkscape:export-ydpi="48.750004"
   xmlns:inkscape="http://www.inkscape.org/namespaces/inkscape"
   xmlns:sodipodi="http://sodipodi.sourceforge.net/DTD/sodipodi-0.dtd"
   xmlns="http://www.w3.org/2000/svg"
   xmlns:svg="http://www.w3.org/2000/svg"
   xmlns:rdf="http://www.w3.org/1999/02/22-rdf-syntax-ns#"
   xmlns:cc="http://creativecommons.org/ns#"
   xmlns:dc="http://purl.org/dc/elements/1.1/">
  <defs
     id="defs2" />
  <sodipodi:namedview
     id="base"
     pagecolor="#ffffff"
     bordercolor="#666666"
     borderopacity="1.0"
     inkscape:pageopacity="0.0"
     inkscape:pageshadow="2"
     inkscape:zoom="15.839192"
     inkscape:cx="-6.4081552"
     inkscape:cy="12.532205"
     inkscape:document-units="px"
     inkscape:current-layer="svg8"
     inkscape:document-rotation="0"
     showgrid="false"
     units="px"
     inkscape:pagecheckerboard="true"
     inkscape:window-width="1920"
     inkscape:window-height="1137"
     inkscape:window-x="1912"
     inkscape:window-y="-8"
     inkscape:window-maximized="1" />
  <metadata
     id="metadata5">
    <rdf:RDF>
      <cc:Work
         rdf:about="">
        <dc:format>image/svg+xml</dc:format>
        <dc:type
           rdf:resource="http://purl.org/dc/dcmitype/StillImage" />
      </cc:Work>
    </rdf:RDF>
  </metadata>
  <path
     id="tree"
     d="M 11.770754,3.3895021e-4 C 10.94978,-0.01050505 10.118773,0.23481525 9.3759734,0.74640395 8.6937744,1.216204 8.0948144,2.0051774 7.7991164,2.8234605 7.7345164,3.002236 7.7004064,3.053357 7.6566494,3.0365328 7.1344934,2.8357435 6.2755614,2.792198 5.7317874,2.9389398 c -1.12221,0.3028215 -1.976244,1.1532002 -2.310685,2.300642 -0.121585,0.4171816 -0.162216,1.0402123 -0.09508,1.4572973 0.02524,0.156818 0.03763,0.293415 0.02762,0.303447 -0.01002,0.01004 -0.116144,0.04374 -0.23598,0.07484 -0.7859,0.203941 -1.63229,0.867338 -2.090237,1.63852 -0.39912098,0.672121 -0.56712998,1.2922149 -0.56798098,2.0952569 -0.0011,1.137182 0.353932,2.037646 1.11462498,2.826888 0.68142,0.706963 1.56625,1.087421 2.499435,1.074459 0.235692,-0.0033 0.49573,-0.02229 0.577709,-0.04221 0.138118,-0.03355 0.154532,-0.02886 0.223586,0.06355 0.420609,0.562804 0.800903,0.884686 1.389986,1.176288 0.319391,0.158119 0.448213,0.250345 0.765992,0.548997 1.183218,1.112041 2.270247,1.942856 3.6215916,2.767737 0.452535,0.276181 0.857564,0.648146 0.977965,0.8981 0.157771,0.327542 0.173176,0.526458 0.08692,1.121844 -0.132285,0.913144 -0.377901,1.825205 -0.625095,2.32104 l -0.125678,0.252139 h -0.642353 c -0.7697926,-1.43e-4 -4.4002896,0.104979 -5.0581786,0.146546 l 4.76e-4,-1.43e-4 c -0.256258,0.01619 3.087561,0.03183 7.4308376,0.03483 4.343039,0.003 7.889682,-0.001 7.881144,-0.0089 -0.02263,-0.02095 -2.802949,-0.102621 -4.428691,-0.13007 l -1.40003,-0.02354 -0.137602,-0.205384 c -0.394011,-0.588063 -0.651641,-1.719951 -0.77776,-3.416993 -0.100227,-1.348205 0.06925,-1.934465 0.701036,-2.425848 0.532576,-0.414241 1.435332,-0.996005 2.319783,-1.494798 0.358692,-0.202273 0.694042,-0.396104 0.74528,-0.43085 0.05123,-0.03475 0.16027,-0.08469 0.242255,-0.110929 0.367144,-0.117482 1.01614,-0.488376 1.347468,-0.77007 0.174375,-0.148254 0.210823,-0.163557 0.391311,-0.164119 0.389655,-0.0013 1.005897,-0.170936 1.489619,-0.41014 1.018449,-0.503641 1.834183,-1.455445 2.208542,-2.576787 0.516169,-1.546144 0.258102,-3.1896389 -0.699153,-4.4534819 l -0.255436,-0.337338 0.04362,-0.209306 c 0.07839,-0.37602 0.09068,-1.0350379 0.0262,-1.4047357 C 22.126677,3.8881185 21.113891,2.7152358 19.728001,2.336925 19.502937,2.2754836 19.322746,2.2585156 18.847314,2.2540812 L 18.249679,2.2484338 18.006796,2.0747442 C 17.355793,1.6092146 16.618882,1.3875 15.849091,1.4253306 c -0.235694,0.01158 -0.536164,0.04735 -0.667772,0.079549 L 14.941888,1.5634037 14.678137,1.2910229 C 13.865098,0.45163235 12.8263,0.01429745 11.77076,3.5555021e-4 Z M 11.900669,7.7970701 c 0.0096,-0.0019 -0.0017,0.009 0.0055,0.05413 0.0332,0.207162 0.150044,1.050619 0.257161,1.601961 5.62e-4,0.0033 0.0011,0.0066 0.0016,0.0099 0.0072,-9.6e-5 0.01333,4e-6 0.02071,-1.43e-4 0.11655,-0.0024 0.306062,-0.05442 0.530326,-0.108105 0.382303,-0.09151 0.865495,-0.187614 1.260073,-0.04927 0.351375,0.123199 0.63241,0.432271 0.70935,1.0957969 0.0604,0.520898 0.02907,1.001505 -0.067,1.428742 -0.109567,0.487247 -0.30334,0.905136 -0.540681,1.234028 -0.240232,0.332897 -0.525123,0.574586 -0.813061,0.705113 -0.708296,0.321086 -1.02091,-0.08659 -1.341191,-0.102456 -0.184772,-0.0092 -0.529498,0.201162 -0.932307,0.209934 -0.306524,0.0067 -0.646761,-0.103306 -0.975769,-0.515421 -0.3140886,-0.393429 -0.5426076,-0.96204 -0.6544336,-1.554733 -0.1144,-0.606326 -0.106661,-1.237918 0.05664,-1.732816 0.20427,-0.6190469 0.6519796,-1.0243179 1.4083446,-0.8992009 0.781216,0.12923 0.799197,0.263442 1.181622,0.285717 -0.0949,-1.198853 -0.502894,-1.639386 -0.330277,-1.638205 0.164438,0.0011 0.211146,-0.0225 0.223427,-0.02495 z m 2.150644,7.5759709 0.311919,0.168669 c 0.171575,0.09274 0.453758,0.209554 0.627134,0.259515 0.173369,0.04997 0.321583,0.109874 0.329335,0.133209 0.02254,0.06774 -0.201528,0.515695 -0.391154,0.781995 -0.218455,0.306742 -0.573818,0.659669 -0.760186,0.755008 -0.18663,0.0954 -0.236738,0.0919 -0.326982,-0.02306 -0.06534,-0.08324 -0.07293,-0.136184 -0.05852,-0.401511 0.0091,-0.168062 0.02657,-0.568626 0.03891,-0.890257 0.02218,-0.577736 0.02373,-0.585911 0.125992,-0.684088 z m 1.684647,0.607992 0.419867,0.02118 c 0.230901,0.01167 0.424693,0.02521 0.430694,0.03012 0.01826,0.015 -0.646868,0.536757 -0.908144,0.712331 -0.228322,0.153433 -0.396306,0.205099 -0.43948,0.135092 -0.02929,-0.04748 0.10413,-0.315202 0.308154,-0.61819 z m -7.9360586,0.218878 c 0.356624,0 0.447167,0.01043 0.447167,0.05178 0,0.106363 0.193657,0.721946 0.297956,0.947213 0.05941,0.128294 0.101117,0.233311 0.09273,0.233311 -0.07903,0 -1.28502,-1.13474 -1.28502,-1.20908 0,-0.01279 0.201226,-0.02322 0.447169,-0.02322 z m 0.768188,0.08222 c 0.0018,-5.62e-4 0.0041,-2.86e-4 0.0067,0.0011 0.460668,0.242241 0.967745,0.43369 1.31342,0.495808 0.1092,0.01963 0.1476866,0.05352 0.2235836,0.197068 0.126513,0.239338 0.689365,1.095392 1.065046,1.619847 0.171568,0.239508 0.316135,0.474672 0.321333,0.522637 0.01379,0.127167 -0.100367,0.126555 -0.346908,-0.002 C 10.323335,18.684772 9.2362534,17.864549 9.0048564,17.497216 8.8497224,17.25094 8.5107834,16.300193 8.5680434,16.282173 Z m 3.2331036,0.462388 c 0.01252,-4.29e-4 0.02065,4.28e-4 0.02322,0.003 0.01028,0.01026 0.01867,0.325576 0.01867,0.700564 0,0.522907 -0.01193,0.696203 -0.05115,0.743711 -0.0769,0.09314 -0.161755,0.0757 -0.329022,-0.06778 -0.193727,-0.166199 -0.365019,-0.434783 -0.495023,-0.77619 -0.186303,-0.489365 -0.194379,-0.461244 0.142153,-0.489374 0.159768,-0.01335 0.381553,-0.04792 0.492982,-0.07688 0.08358,-0.02173 0.160603,-0.03572 0.198167,-0.03703 z" />
  <path
     id="apple"
     d="m 11.608889,7.4945194e-4 c -0.0483,0.009999998 -0.23203,0.10225999806 -0.87941,0.0977999981 -0.67958,-0.005 0.92637,1.73009005 1.29999,6.45059005 -1.50559,-0.0877 -1.57625,-0.61603 -4.6518605,-1.12487 -2.97776,-0.49266 -4.74011,1.10312 -5.54431,3.54062 -0.64291,1.9486695 -0.67342,4.4353595 -0.22304,6.8227695 0.44026,2.33374 1.34,4.57269 2.57655,6.12182 1.29529,1.62271 2.63463,2.05573 3.84139,2.02945 1.58583,-0.0345 2.9426805,-0.86229 3.6701105,-0.82626 1.26093,0.0625 2.49183,1.66767 5.28035,0.4034 1.13359,-0.51396 2.25555,-1.46616 3.20133,-2.77694 0.93439,-1.29502 1.69673,-2.94002 2.12809,-4.85856 0.37823,-1.68226 0.50206,-3.57479 0.26428,-5.62583 -0.30291,-2.6126395 -1.40958,-3.8294695 -2.79292,-4.3145595 -1.55343,-0.54474 -3.45581,-0.16681 -4.96091,0.19352 -0.88292,0.21138 -1.62906,0.41675 -2.08791,0.42614 -0.0291,5.9e-4 -0.053,-8e-5 -0.0813,3.9e-4 -0.002,-0.013 -0.004,-0.026 -0.006,-0.039 -0.42171,-2.17091 -0.88187,-5.4916 -1.01259,-6.30730005 -0.0285,-0.17786 0.0158,-0.22063 -0.0218,-0.21314999806 z" />
  <path
     d="M 19.2,0 H 4.8 C 3.48,0 2.4,1.08 2.4,2.4 v 19.2 c 0,1.32 1.08,2.4 2.4,2.4 h 14.4 c 1.32,0 2.4,-1.08 2.4,-2.4 V 2.4 C 21.6,1.08 20.52,0 19.2,0 Z M 4.8,2.4 h 6 V 12 l -3,-1.8 -3,1.8 z"
     id="recipe" />
  <path
     d="M 18,0 C 17.34,0 16.8,0.54 16.8,1.2 V 2.4 H 7.2 V 1.2 C 7.2,0.54 6.66,0 6,0 5.34,0 4.8,0.54 4.8,1.2 V 2.4 H 3.6 C 2.268,2.4 1.212,3.48 1.212,4.8 L 1.2,21.6 c 0,1.32 1.068,2.4 2.4,2.4 h 16.8 c 1.32,0 2.4,-1.08 2.4,-2.4 V 4.8 C 22.8,3.48 21.72,2.4 20.4,2.4 H 19.2 V 1.2 C 19.2,0.54 18.66,0 18,0 Z m 2.4,21.6 H 3.6 v -12 h 16.8 z m -9.6,-8.4 c 0,-0.66 0.54,-1.2 1.2,-1.2 0.66,0 1.2,0.54 1.2,1.2 0,0.66 -0.54,1.2 -1.2,1.2 -0.66,0 -1.2,-0.54 -1.2,-1.2 z M 6,13.2 C 6,12.54 6.54,12 7.2,12 c 0.66,0 1.2,0.54 1.2,1.2 0,0.66 -0.54,1.2 -1.2,1.2 C 6.54,14.4 6,13.86 6,13.2 Z m 9.6,0 c 0,-0.66 0.54,-1.2 1.2,-1.2 0.66,0 1.2,0.54 1.2,1.2 0,0.66 -0.54,1.2 -1.2,1.2 -0.66,0 -1.2,-0.54 -1.2,-1.2 z M 10.8,18 c 0,-0.66 0.54,-1.2 1.2,-1.2 0.66,0 1.2,0.54 1.2,1.2 0,0.66 -0.54,1.2 -1.2,1.2 -0.66,0 -1.2,-0.54 -1.2,-1.2 z M 6,18 c 0,-0.66 0.54,-1.2 1.2,-1.2 0.66,0 1.2,0.54 1.2,1.2 0,0.66 -0.54,1.2 -1.2,1.2 C 6.54,19.2 6,18.66 6,18 Z m 9.6,0 c 0,-0.66 0.54,-1.2 1.2,-1.2 0.66,0 1.2,0.54 1.2,1.2 0,0.66 -0.54,1.2 -1.2,1.2 -0.66,0 -1.2,-0.54 -1.2,-1.2 z"
     id="diary" />
  <path
     d="M 22.90909,9.2795451 H 17.683635 L 12.894544,2.1122723 c -0.436364,-0.6436364 -1.385454,-0.6436364 -1.810909,0 L 6.294544,9.2795451 H 1.0909076 c -0.59999995,0 -1.09090905,0.4909088 -1.09090905,1.0909089 0,0.09818 0.010909,0.196364 0.043636,0.294546 L 2.8145436,20.777727 c 0.250909,0.916364 1.090909,1.592728 2.0945454,1.592728 h 14.181819 c 1.003636,0 1.843636,-0.676364 2.105454,-1.592728 L 23.967271,10.665 l 0.03273,-0.294546 c 0,-0.6000001 -0.490909,-1.0909089 -1.090908,-1.0909089 z M 11.989089,4.6868178 15.054544,9.2795451 H 8.9236351 Z m 0.01091,13.3200002 c -1.2,0 -2.1818185,-0.981818 -2.1818185,-2.181818 0,-1.2 0.9818185,-2.181819 2.1818185,-2.181819 1.2,0 2.181817,0.981819 2.181817,2.181819 0,1.2 -0.981817,2.181818 -2.181817,2.181818 z"
     id="shop" />
  <path
     d="M 12,0 9.885,2.115 18.255,10.5 H 0 v 3 H 18.255 L 9.885,21.885 12,24 24,12 Z"
     id="forward" />
  <g
     id="donate">
    <path
       style="fill:#f2ac05;stroke-width:1"
       d="M 6.6253416,3.0492145 17.347041,2.6974073 V 21.158731 L 6.6253416,21.510538 Z"
       id="path7012" />
    <path
       d="M 12,-4.9999999e-8 C 5.376,-4.9999999e-8 -4.9999999e-8,5.3760001 -4.9999999e-8,12 -4.9999999e-8,18.624 5.376,24 12,24 18.624,24 24,18.624 24,12 24,5.3760002 18.624,5.0000001e-8 12,-4.9999999e-8 Z M 13.056,18.912 V 20.4 h -2.1 V 18.852 C 10.068,18.636 8.0880001,17.928 7.3319999,15.3 L 9.3120001,14.496 C 9.384,14.76 10.008,17.004 12.192,17.004 c 1.116,0 2.376,-0.576 2.376,-1.932 0,-1.152 -0.84,-1.752 -2.736,-2.436 -1.32,-0.468 -4.02,-1.236 -4.02,-3.9719999 0,-0.12 0.012,-2.88 3.144,-3.552 v -1.512 h 2.1 V 5.088 c 2.208,0.384 3.012,2.148 3.192,2.676 l -1.896,0.8040001 c -0.132,-0.42 -0.708,-1.608 -2.28,-1.608 -0.84,0 -2.172,0.444 -2.172,1.668 0,1.14 1.032,1.5719999 3.168,2.2799999 2.88,0.996 3.612,2.46 3.612,4.14 0,3.156 -3,3.756 -3.624,3.864 z"
       style="fill:#13ad73;stroke-width:1"
       id="path7014" />
  </g>
  <g
     id="nocharge">
    <path
       d="M 12.666666,5.2000003 C 15.04,5.2000003 15.92,6.3333336 16,8.0000002 h 2.946666 c -0.09333,-2.2933332 -1.493333,-4.3999997 -4.28,-5.0799997 V 4.5e-7 H 10.666667 V 2.8800004 c -0.7066672,0.1600001 -1.3733342,0.4 -1.9733342,0.72 l 1.9600002,1.9599999 c 0.546667,-0.2266667 1.213334,-0.36 2.013333,-0.36 z M 4.8600456,5.6837635 v 0 l 1.1399542,2.0095702 c 0,2.7733333 2.08,4.2800003 5.2133332,5.2133333 l 4.68,4.68 c -0.453333,0.64 -1.4,1.213334 -3.226667,1.213334 -2.7466662,0 -3.8266662,-1.226667 -3.9733332,-2.8 h -2.933333 c 0.16,2.92 2.346667,4.56 4.9066672,5.106666 V 24 h 3.999999 v -2.866666 c 1.28,-0.24 2.426667,-0.733333 3.266667,-1.493333 l 2.407482,1.296593 0.883268,-0.498794 z"
       style="fill:#13ad73"
       sodipodi:nodetypes="sccccccccscccccscccccccccc"
       id="path7017" />
    <path
       d="M 3.1066668,1.4133338 1.4133338,3.1066671 20.893333,22.600001 22.586666,20.906667 Z"
       style="fill:#f2ac05"
       id="path7019" />
  </g>
  <g
     id="devices">
    <path
       d="M 16.742797,15.760935 H 1.880468 V 4.4781287 h 16.92421 v 3.4342024 h 1.880467 V 4.4781287 c 0,-1.0342572 -0.84621,-1.8804677 -1.880467,-1.8804677 H 1.880468 C 0.846211,2.597661 0,3.4438715 0,4.4781287 V 15.760935 c 0,1.034258 0.846211,1.880468 1.880468,1.880468 h 6.581637 v 1.880468 H 6.581637 v 1.880468 h 7.521871 v -1.880468 h -1.880467 v -1.880468 h 4.519756"
       style="fill:#13ad73"
       id="path7022" />
    <path
       d="m 22.388735,7.2216146 h -5.156048 c -0.889418,0 -1.611266,0.7218467 -1.611266,1.6112644 v 10.956602 c 0,0.889419 0.721848,1.611266 1.611266,1.611266 h 5.156048 C 23.278153,21.400747 24,20.6789 24,19.789481 V 8.832879 C 24,7.9434613 23.278153,7.2216146 22.388735,7.2216146 Z M 19.810711,20.756241 c -0.53494,0 -0.966759,-0.431819 -0.966759,-0.96676 0,-0.534939 0.431819,-0.966759 0.966759,-0.966759 0.53494,0 0.966759,0.43182 0.966759,0.966759 0,0.534941 -0.431819,0.96676 -0.966759,0.96676 z m 2.900277,-2.578025 H 16.910434 V 9.155132 h 5.800554 z"
       style="fill:#f2ac05"
       id="path7024" />
  </g>
  <g
     id="quality">
    <path
       style="fill:#f2ac05"
       d="M 4.3714509,6.4382777 H 19.292563 V 17.726062 H 4.3714509 Z"
       id="path7027" />
    <path
       d="M 24,12.000001 21.338182,8.9563635 21.709091,4.9309089 17.770909,4.0363634 15.709091,0.5454543 12,2.1381816 8.2909086,0.5454543 6.2290906,4.0254544 2.2909086,4.9090907 2.6618176,8.9454544 -4e-7,12.000001 l 2.661818,3.043636 -0.370909,4.036364 3.938182,0.894545 2.061818,3.48 L 12,21.85091 l 3.709091,1.592727 2.061818,-3.48 3.938182,-0.894545 -0.370909,-4.025455 z m -14.0836364,5.149091 -4.145455,-4.156364 1.614546,-1.614546 2.530909,2.541819 6.3818184,-6.4036375 1.614546,1.6145454 z"
       style="fill:#13ad73"
       id="path7029" />
  </g>
  <path
     d="M 12,0.54715034 2.613543,4.7177231 v 6.2558589 c 0,5.78667 4.004888,11.197988 9.386457,12.511718 5.381569,-1.31373 9.386457,-6.725048 9.386457,-12.511718 V 4.7177231 Z"
     id="privacy"
     style="fill:#13ad73;fill-opacity:1;stroke:#f2ac05;stroke-width:1;stroke-miterlimit:4;stroke-dasharray:none;stroke-opacity:1" />
  <g
     id="github">
    <path
       style="fill:#f2ac05"
       d="M 24,12 A 12,12 0 0 1 12,24 12,12 0 0 1 0,12 12,12 0 0 1 12,0 12,12 0 0 1 24,12 Z"
       id="path952" />
    <path
       d="M 12,0 C 5.37,0 0,5.37 0,12 0,17.31 3.435,21.795 8.205,23.385 8.805,23.49 9.03,23.13 9.03,22.815 9.03,22.53 9.015,21.585 9.015,20.58 6,21.135 5.22,19.845 4.98,19.17 4.845,18.825 4.26,17.76 3.75,17.475 3.33,17.25 2.73,16.695 3.735,16.68 4.68,16.665 5.355,17.55 5.58,17.91 6.66,19.725 8.385,19.215 9.075,18.9 9.18,18.12 9.495,17.595 9.84,17.295 7.17,16.995 4.38,15.96 4.38,11.37 c 0,-1.305 0.465,-2.385 1.23,-3.225 -0.12,-0.3 -0.54,-1.53 0.12,-3.18 0,0 1.005,-0.315 3.3,1.23 0.96,-0.27 1.98,-0.405 3,-0.405 1.02,0 2.04,0.135 3,0.405 2.295,-1.56 3.3,-1.23 3.3,-1.23 0.66,1.65 0.24,2.88 0.12,3.18 0.765,0.84 1.23,1.905 1.23,3.225 0,4.605 -2.805,5.625 -5.475,5.925 0.435,0.375 0.81,1.095 0.81,2.22 0,1.605 -0.015,2.895 -0.015,3.3 0,0.315 0.225,0.69 0.825,0.57 C 20.565,21.795 24,17.295 24,12 24,5.37 18.63,0 12,0 Z"
       style="fill:#13ad73"
       id="path954" />
  </g>
  <path
     d="M 12,0 C 5.376,0 0,5.376 0,12 0,18.624 5.376,24 12,24 18.624,24 24,18.624 24,12 24,5.376 18.624,0 12,0 Z m 0,3.6 c 1.992,0 3.6,1.608 3.6,3.6 0,1.992 -1.608,3.6 -3.6,3.6 -1.992,0 -3.6,-1.608 -3.6,-3.6 0,-1.992 1.608,-3.6 3.6,-3.6 z m 0,17.04 c -3,0 -5.652,-1.536 -7.2,-3.864 0.036,-2.388 4.8,-3.696 7.2,-3.696 2.388,0 7.164,1.308 7.2,3.696 C 17.652,19.104 15,20.64 12,20.64 Z"
     id="account" />
  <path
     d="M 18,6 16.308,7.692 19.404,10.8 H 7.2 v 2.4 H 19.404 L 16.308,16.296 18,18 24,12 Z M 2.4,3.6 H 12 V 1.2 H 2.4 C 1.08,1.2 0,2.28 0,3.6 v 16.8 c 0,1.32 1.08,2.4 2.4,2.4 H 12 V 20.4 H 2.4 Z"
     id="logout" />
  <path
     d="M 12,6 C 13.65,6 15,4.65 15,3 15,1.35 13.65,0 12,0 10.35,0 9,1.35 9,3 c 0,1.65 1.35,3 3,3 z m 0,3 c -1.65,0 -3,1.35 -3,3 0,1.65 1.35,3 3,3 1.65,0 3,-1.35 3,-3 0,-1.65 -1.35,-3 -3,-3 z m 0,9 c -1.65,0 -3,1.35 -3,3 0,1.65 1.35,3 3,3 1.65,0 3,-1.35 3,-3 0,-1.65 -1.35,-3 -3,-3 z"
     id="more" />
  <path
     d="M -7.5e-8,19.000694 V 24 H 4.9993056 L 19.743925,9.2553805 14.744619,4.2560752 Z M 23.610055,5.3892512 c 0.519927,-0.5199278 0.519927,-1.3598112 0,-1.879739 L 20.490488,0.38994538 c -0.519928,-0.5199278 -1.359811,-0.5199278 -1.879739,0 l -2.439661,2.43966122 4.999305,4.9993059 z"
     id="edit" />
  <path
     d="M 18.666667,4.5e-7 H 2.6666671 C 1.1866671,4.5e-7 4.5e-7,1.2000005 4.5e-7,2.6666671 V 21.333334 C 4.5e-7,22.8 1.1866671,24 2.6666671,24 H 21.333334 C 22.8,24 24,22.8 24,21.333334 V 5.3333337 Z M 12.000001,21.333334 c -2.2133344,0 -4.0000004,-1.786667 -4.0000004,-4 0,-2.213333 1.786666,-4 4.0000004,-4 2.213333,0 4,1.786667 4,4 0,2.213333 -1.786667,4 -4,4 z m 4,-13.3333334 H 2.6666671 V 2.6666671 H 16.000001 Z"
     id="save" />
  <path
     d="M 7.6363634,17.318182 1.9090905,11.590909 -4e-7,13.5 7.6363634,21.136364 24,4.7727271 22.090909,2.8636361 Z"
     id="check" />
</svg>
