<svg width="24" height="24" version="1.1" viewBox="0 0 24 24" xmlns="http://www.w3.org/2000/svg">
 <path id="tree" d="m11.771 3.3895e-4c-0.82097-0.010844-1.652 0.23448-2.3948 0.74606-0.6822 0.4698-1.2812 1.2588-1.5769 2.0771-0.0646 0.17878-0.09871 0.2299-0.14247 0.21307-0.52216-0.20079-1.3811-0.24433-1.9249-0.097593-1.1222 0.30282-1.9762 1.1532-2.3107 2.3006-0.12158 0.41718-0.16222 1.0402-0.09508 1.4573 0.02524 0.15682 0.03763 0.29342 0.02762 0.30345-0.01002 0.01004-0.11614 0.04374-0.23598 0.07484-0.7859 0.20394-1.6323 0.86734-2.0902 1.6385-0.39912 0.67212-0.56713 1.2922-0.56798 2.0953-0.0011 1.1372 0.35393 2.0376 1.1146 2.8269 0.68142 0.70696 1.5662 1.0874 2.4994 1.0745 0.23569-0.0033 0.49573-0.02229 0.57771-0.04221 0.13812-0.03355 0.15453-0.02886 0.22359 0.06355 0.42061 0.5628 0.8009 0.88469 1.39 1.1763 0.31939 0.15812 0.44821 0.25034 0.76599 0.549 1.1832 1.112 2.2702 1.9429 3.6216 2.7677 0.45254 0.27618 0.85756 0.64815 0.97796 0.8981 0.15777 0.32754 0.17318 0.52646 0.08692 1.1218-0.13228 0.91314-0.3779 1.8252-0.6251 2.321l-0.12568 0.25214h-0.64235c-0.76979-1.43e-4 -4.4003 0.10498-5.0582 0.14655l4.76e-4 -1.43e-4c-0.25626 0.01619 3.0876 0.03183 7.4308 0.03483 4.343 3e-3 7.8897-1e-3 7.8811-0.0089-0.02263-0.02095-2.8029-0.10262-4.4287-0.13007l-1.4-0.02354-0.1376-0.20538c-0.39401-0.58806-0.65164-1.72-0.77776-3.417-0.10023-1.3482 0.06925-1.9345 0.70104-2.4258 0.53258-0.41424 1.4353-0.996 2.3198-1.4948 0.35869-0.20227 0.69404-0.3961 0.74528-0.43085 0.05123-0.03475 0.16027-0.08469 0.24226-0.11093 0.36714-0.11748 1.0161-0.48838 1.3475-0.77007 0.17438-0.14825 0.21082-0.16356 0.39131-0.16412 0.38966-0.0013 1.0059-0.17094 1.4896-0.41014 1.0184-0.50364 1.8342-1.4554 2.2085-2.5768 0.51617-1.5461 0.2581-3.1896-0.69915-4.4535l-0.25544-0.33734 0.04362-0.20931c0.07839-0.37602 0.09068-1.035 0.0262-1.4047-0.26817-1.5376-1.281-2.7105-2.6668-3.0888-0.22506-0.061441-0.40526-0.078409-0.88069-0.082844l-0.59764-0.0056474-0.24288-0.17369c-0.651-0.46553-1.3879-0.68724-2.1577-0.64941-0.23569 0.01158-0.53616 0.04735-0.66777 0.079549l-0.23943 0.058524-0.26375-0.27238c-0.81304-0.83939-1.8518-1.2767-2.9074-1.2907zm0.12992 7.7967c0.0096-0.0019-0.0017 9e-3 0.0055 0.05413 0.0332 0.20716 0.15004 1.0506 0.25716 1.602 5.62e-4 0.0033 0.0011 0.0066 0.0016 0.0099 0.0072-9.6e-5 0.01333 4e-6 0.02071-1.43e-4 0.11655-0.0024 0.30606-0.05442 0.53033-0.1081 0.3823-0.09151 0.8655-0.18761 1.2601-0.04927 0.35138 0.1232 0.63241 0.43227 0.70935 1.0958 0.0604 0.5209 0.02907 1.0015-0.067 1.4287-0.10957 0.48725-0.30334 0.90514-0.54068 1.234-0.24023 0.3329-0.52512 0.57459-0.81306 0.70511-0.7083 0.32109-1.0209-0.08659-1.3412-0.10246-0.18477-0.0092-0.5295 0.20116-0.93231 0.20993-0.30652 0.0067-0.64676-0.10331-0.97577-0.51542-0.31409-0.39343-0.54261-0.96204-0.65443-1.5547-0.1144-0.60633-0.10666-1.2379 0.05664-1.7328 0.20427-0.61905 0.65198-1.0243 1.4083-0.8992 0.78122 0.12923 0.7992 0.26344 1.1816 0.28572-0.0949-1.1989-0.50289-1.6394-0.33028-1.6382 0.16444 0.0011 0.21115-0.0225 0.22343-0.02495zm2.1506 7.576 0.31192 0.16867c0.17158 0.09274 0.45376 0.20955 0.62713 0.25952 0.17337 0.04997 0.32158 0.10987 0.32934 0.13321 0.02254 0.06774-0.20153 0.5157-0.39115 0.782-0.21846 0.30674-0.57382 0.65967-0.76019 0.75501-0.18663 0.0954-0.23674 0.0919-0.32698-0.02306-0.06534-0.08324-0.07293-0.13618-0.05852-0.40151 0.0091-0.16806 0.02657-0.56863 0.03891-0.89026 0.02218-0.57774 0.02373-0.58591 0.12599-0.68409zm1.6846 0.60799 0.41987 0.02118c0.2309 0.01167 0.42469 0.02521 0.43069 0.03012 0.01826 0.015-0.64687 0.53676-0.90814 0.71233-0.22832 0.15343-0.39631 0.2051-0.43948 0.13509-0.02929-0.04748 0.10413-0.3152 0.30815-0.61819zm-7.9361 0.21888c0.35662 0 0.44717 0.01043 0.44717 0.05178 0 0.10636 0.19366 0.72195 0.29796 0.94721 0.05941 0.12829 0.10112 0.23331 0.09273 0.23331-0.07903 0-1.285-1.1347-1.285-1.2091 0-0.01279 0.20123-0.02322 0.44717-0.02322zm0.76819 0.08222c0.0018-5.62e-4 0.0041-2.86e-4 0.0067 0.0011 0.46067 0.24224 0.96774 0.43369 1.3134 0.49581 0.1092 0.01963 0.14769 0.05352 0.22358 0.19707 0.12651 0.23934 0.68936 1.0954 1.065 1.6198 0.17157 0.23951 0.31614 0.47467 0.32133 0.52264 0.01379 0.12717-0.10037 0.12656-0.34691-2e-3 -0.82793-0.43182-1.915-1.252-2.1464-1.6194-0.15513-0.24628-0.49407-1.197-0.43681-1.215zm3.2331 0.46239c0.01252-4.29e-4 0.02065 4.28e-4 0.02322 3e-3 0.01028 0.01026 0.01867 0.32558 0.01867 0.70056 0 0.52291-0.01193 0.6962-0.05115 0.74371-0.0769 0.09314-0.16176 0.0757-0.32902-0.06778-0.19373-0.1662-0.36502-0.43478-0.49502-0.77619-0.1863-0.48936-0.19438-0.46124 0.14215-0.48937 0.15977-0.01335 0.38155-0.04792 0.49298-0.07688 0.08358-0.02173 0.1606-0.03572 0.19817-0.03703z"/>
 <path id="apple" d="m11.609 7.4945e-4c-0.0483 0.01-0.23203 0.10226-0.87941 0.0978-0.67958-5e-3 0.92637 1.7301 1.3 6.4506-1.5056-0.0877-1.5762-0.61603-4.6519-1.1249-2.9778-0.49266-4.7401 1.1031-5.5443 3.5406-0.64291 1.9487-0.67342 4.4354-0.22304 6.8228 0.44026 2.3337 1.34 4.5727 2.5766 6.1218 1.2953 1.6227 2.6346 2.0557 3.8414 2.0294 1.5858-0.0345 2.9427-0.86229 3.6701-0.82626 1.2609 0.0625 2.4918 1.6677 5.2804 0.4034 1.1336-0.51396 2.2556-1.4662 3.2013-2.7769 0.93439-1.295 1.6967-2.94 2.1281-4.8586 0.37823-1.6823 0.50206-3.5748 0.26428-5.6258-0.30291-2.6126-1.4096-3.8295-2.7929-4.3146-1.5534-0.54474-3.4558-0.16681-4.9609 0.19352-0.88292 0.21138-1.6291 0.41675-2.0879 0.42614-0.0291 5.9e-4 -0.053-8e-5 -0.0813 3.9e-4l-6e-3 -0.039c-0.42171-2.1709-0.88187-5.4916-1.0126-6.3073-0.0285-0.17786 0.0158-0.22063-0.0218-0.21315z"/>
 <path id="recipe" d="m19.2 0h-14.4c-1.32 0-2.4 1.08-2.4 2.4v19.2c0 1.32 1.08 2.4 2.4 2.4h14.4c1.32 0 2.4-1.08 2.4-2.4v-19.2c0-1.32-1.08-2.4-2.4-2.4zm-14.4 2.4h6v9.6l-3-1.8-3 1.8z"/>
 <path id="diary" d="m18 0c-0.66 0-1.2 0.54-1.2 1.2v1.2h-9.6v-1.2c0-0.66-0.54-1.2-1.2-1.2s-1.2 0.54-1.2 1.2v1.2h-1.2c-1.332 0-2.388 1.08-2.388 2.4l-0.012 16.8c0 1.32 1.068 2.4 2.4 2.4h16.8c1.32 0 2.4-1.08 2.4-2.4v-16.8c0-1.32-1.08-2.4-2.4-2.4h-1.2v-1.2c0-0.66-0.54-1.2-1.2-1.2zm2.4 21.6h-16.8v-12h16.8zm-9.6-8.4c0-0.66 0.54-1.2 1.2-1.2s1.2 0.54 1.2 1.2-0.54 1.2-1.2 1.2-1.2-0.54-1.2-1.2zm-4.8 0c0-0.66 0.54-1.2 1.2-1.2s1.2 0.54 1.2 1.2-0.54 1.2-1.2 1.2-1.2-0.54-1.2-1.2zm9.6 0c0-0.66 0.54-1.2 1.2-1.2s1.2 0.54 1.2 1.2-0.54 1.2-1.2 1.2-1.2-0.54-1.2-1.2zm-4.8 4.8c0-0.66 0.54-1.2 1.2-1.2s1.2 0.54 1.2 1.2-0.54 1.2-1.2 1.2-1.2-0.54-1.2-1.2zm-4.8 0c0-0.66 0.54-1.2 1.2-1.2s1.2 0.54 1.2 1.2-0.54 1.2-1.2 1.2-1.2-0.54-1.2-1.2zm9.6 0c0-0.66 0.54-1.2 1.2-1.2s1.2 0.54 1.2 1.2-0.54 1.2-1.2 1.2-1.2-0.54-1.2-1.2z"/>
 <path id="shop" d="m22.909 9.2795h-5.2255l-4.7891-7.1673c-0.43636-0.64364-1.3855-0.64364-1.8109 0l-4.7891 7.1673h-5.2036c-0.6 0-1.0909 0.49091-1.0909 1.0909 0 0.09818 0.010909 0.19636 0.043636 0.29455l2.7709 10.113c0.25091 0.91636 1.0909 1.5927 2.0945 1.5927h14.182c1.0036 0 1.8436-0.67636 2.1055-1.5927l2.7709-10.113 0.03273-0.29455c0-0.6-0.49091-1.0909-1.0909-1.0909zm-10.92-4.5927 3.0655 4.5927h-6.1309zm0.01091 13.32c-1.2 0-2.1818-0.98182-2.1818-2.1818s0.98182-2.1818 2.1818-2.1818 2.1818 0.98182 2.1818 2.1818-0.98182 2.1818-2.1818 2.1818z"/>
 <path id="forward" d="m12 0-2.115 2.115 8.37 8.385h-18.255v3h18.255l-8.37 8.385 2.115 2.115 12-12z"/>
 <g id="donate">
  <path d="m6.6253 3.0492 10.722-0.35181v18.461l-10.722 0.35181z" fill="#f2ac05"/>
  <path d="m12-5e-8c-6.624 0-12 5.376-12 12 0 6.624 5.376 12 12 12s12-5.376 12-12c0-6.624-5.376-12-12-12zm1.056 18.912v1.488h-2.1v-1.548c-0.888-0.216-2.868-0.924-3.624-3.552l1.98-0.804c0.072 0.264 0.696 2.508 2.88 2.508 1.116 0 2.376-0.576 2.376-1.932 0-1.152-0.84-1.752-2.736-2.436-1.32-0.468-4.02-1.236-4.02-3.972 0-0.12 0.012-2.88 3.144-3.552v-1.512h2.1v1.488c2.208 0.384 3.012 2.148 3.192 2.676l-1.896 0.804c-0.132-0.42-0.708-1.608-2.28-1.608-0.84 0-2.172 0.444-2.172 1.668 0 1.14 1.032 1.572 3.168 2.28 2.88 0.996 3.612 2.46 3.612 4.14 0 3.156-3 3.756-3.624 3.864z" fill="#13ad73"/>
 </g>
 <g id="nocharge">
  <path d="m12.667 5.2c2.3733 0 3.2533 1.1333 3.3333 2.8h2.9467c-0.09333-2.2933-1.4933-4.4-4.28-5.08v-2.92h-4v2.88c-0.70667 0.16-1.3733 0.4-1.9733 0.72l1.96 1.96c0.54667-0.22667 1.2133-0.36 2.0133-0.36zm-7.8066 0.48376 1.14 2.0096c0 2.7733 2.08 4.28 5.2133 5.2133l4.68 4.68c-0.45333 0.64-1.4 1.2133-3.2267 1.2133-2.7467 0-3.8267-1.2267-3.9733-2.8h-2.9333c0.16 2.92 2.3467 4.56 4.9067 5.1067v2.8933h4v-2.8667c1.28-0.24 2.4267-0.73333 3.2667-1.4933l2.4075 1.2966 0.88327-0.49879z" fill="#13ad73"/>
  <path d="m3.1067 1.4133-1.6933 1.6933 19.48 19.493 1.6933-1.6933z" fill="#f2ac05"/>
 </g>
 <g id="devices">
  <path d="m16.743 15.761h-14.862v-11.283h16.924v3.4342h1.8805v-3.4342c0-1.0343-0.84621-1.8805-1.8805-1.8805h-16.924c-1.0343 0-1.8805 0.84621-1.8805 1.8805v11.283c0 1.0343 0.84621 1.8805 1.8805 1.8805h6.5816v1.8805h-1.8805v1.8805h7.5219v-1.8805h-1.8805v-1.8805h4.5198" fill="#13ad73"/>
  <path d="m22.389 7.2216h-5.156c-0.88942 0-1.6113 0.72185-1.6113 1.6113v10.957c0 0.88942 0.72185 1.6113 1.6113 1.6113h5.156c0.88942 0 1.6113-0.72185 1.6113-1.6113v-10.957c0-0.88942-0.72185-1.6113-1.6113-1.6113zm-2.578 13.535c-0.53494 0-0.96676-0.43182-0.96676-0.96676 0-0.53494 0.43182-0.96676 0.96676-0.96676s0.96676 0.43182 0.96676 0.96676c0 0.53494-0.43182 0.96676-0.96676 0.96676zm2.9003-2.578h-5.8006v-9.0231h5.8006z" fill="#f2ac05"/>
 </g>
 <g id="quality">
  <path d="m4.3715 6.4383h14.921v11.288h-14.921z" fill="#f2ac05"/>
  <path d="m24 12-2.6618-3.0436 0.37091-4.0255-3.9382-0.89455-2.0618-3.4909-3.7091 1.5927-3.7091-1.5927-2.0618 3.48-3.9382 0.88364 0.37091 4.0364-2.6618 3.0545 2.6618 3.0436-0.37091 4.0364 3.9382 0.89454 2.0618 3.48 3.7091-1.6036 3.7091 1.5927 2.0618-3.48 3.9382-0.89454-0.37091-4.0255zm-14.084 5.1491-4.1455-4.1564 1.6145-1.6145 2.5309 2.5418 6.3818-6.4036 1.6145 1.6145z" fill="#13ad73"/>
 </g>
 <path id="privacy" d="m12 0.54715-9.3865 4.1706v6.2559c0 5.7867 4.0049 11.198 9.3865 12.512 5.3816-1.3137 9.3865-6.725 9.3865-12.512v-6.2559z" fill="#13ad73" stroke="#f2ac05"/>
 <g id="github">
  <path d="m24 12a12 12 0 0 1-12 12 12 12 0 0 1-12-12 12 12 0 0 1 12-12 12 12 0 0 1 12 12z" fill="#f2ac05"/>
  <path d="m12 0c-6.63 0-12 5.37-12 12 0 5.31 3.435 9.795 8.205 11.385 0.6 0.105 0.825-0.255 0.825-0.57 0-0.285-0.015-1.23-0.015-2.235-3.015 0.555-3.795-0.735-4.035-1.41-0.135-0.345-0.72-1.41-1.23-1.695-0.42-0.225-1.02-0.78-0.015-0.795 0.945-0.015 1.62 0.87 1.845 1.23 1.08 1.815 2.805 1.305 3.495 0.99 0.105-0.78 0.42-1.305 0.765-1.605-2.67-0.3-5.46-1.335-5.46-5.925 0-1.305 0.465-2.385 1.23-3.225-0.12-0.3-0.54-1.53 0.12-3.18 0 0 1.005-0.315 3.3 1.23 0.96-0.27 1.98-0.405 3-0.405s2.04 0.135 3 0.405c2.295-1.56 3.3-1.23 3.3-1.23 0.66 1.65 0.24 2.88 0.12 3.18 0.765 0.84 1.23 1.905 1.23 3.225 0 4.605-2.805 5.625-5.475 5.925 0.435 0.375 0.81 1.095 0.81 2.22 0 1.605-0.015 2.895-0.015 3.3 0 0.315 0.225 0.69 0.825 0.57 4.74-1.59 8.175-6.09 8.175-11.385 0-6.63-5.37-12-12-12z" fill="#13ad73"/>
 </g>
 <path id="account" d="m12 0c-6.624 0-12 5.376-12 12s5.376 12 12 12 12-5.376 12-12-5.376-12-12-12zm0 3.6c1.992 0 3.6 1.608 3.6 3.6s-1.608 3.6-3.6 3.6-3.6-1.608-3.6-3.6 1.608-3.6 3.6-3.6zm0 17.04c-3 0-5.652-1.536-7.2-3.864 0.036-2.388 4.8-3.696 7.2-3.696 2.388 0 7.164 1.308 7.2 3.696-1.548 2.328-4.2 3.864-7.2 3.864z"/>
 <path id="logout" d="m18 6-1.692 1.692 3.096 3.108h-12.204v2.4h12.204l-3.096 3.096 1.692 1.704 6-6zm-15.6-2.4h9.6v-2.4h-9.6c-1.32 0-2.4 1.08-2.4 2.4v16.8c0 1.32 1.08 2.4 2.4 2.4h9.6v-2.4h-9.6z"/>
</svg>
