<svg id="svg8" width="24" height="24" version="1.1" viewBox="0 0 24 24" xmlns="http://www.w3.org/2000/svg">
 <path id="tree" d="m11.77 3.39e-4c-0.821-0.01084-1.652 0.2345-2.395 0.7461-0.6822 0.4698-1.281 1.259-1.577 2.077-0.0646 0.1788-0.09871 0.2299-0.1425 0.2131-0.5222-0.2008-1.381-0.2443-1.925-0.09759-1.122 0.3028-1.976 1.153-2.311 2.301-0.1216 0.4172-0.1622 1.04-0.09508 1.457 0.02524 0.1568 0.03763 0.2934 0.02762 0.3034-0.01002 0.01004-0.1161 0.04374-0.236 0.07484-0.7859 0.2039-1.632 0.8673-2.09 1.639-0.3991 0.6721-0.5671 1.292-0.568 2.095-0.0011 1.137 0.3539 2.038 1.115 2.827 0.6814 0.707 1.566 1.087 2.499 1.074 0.2357-0.0033 0.4957-0.02229 0.5777-0.04221 0.1381-0.03355 0.1545-0.02886 0.2236 0.06355 0.4206 0.5628 0.8009 0.8847 1.39 1.176 0.3194 0.1581 0.4482 0.2503 0.766 0.549 1.183 1.112 2.27 1.943 3.622 2.768 0.4525 0.2762 0.8576 0.6481 0.978 0.8981 0.1578 0.3275 0.1732 0.5265 0.08692 1.122-0.1323 0.9131-0.3779 1.825-0.6251 2.321l-0.1257 0.2521h-0.6424c-0.7698-1.43e-4 -4.4 0.105-5.058 0.1465l4.76e-4 -1.43e-4c-0.2563 0.01619 3.088 0.03183 7.431 0.03483 4.343 3e-3 7.89-1e-3 7.881-0.0089-0.02263-0.02095-2.803-0.1026-4.429-0.1301l-1.4-0.02354-0.1376-0.2054c-0.394-0.5881-0.6516-1.72-0.7778-3.417-0.1002-1.348 0.06925-1.934 0.701-2.426 0.5326-0.4142 1.435-0.996 2.32-1.495 0.3587-0.2023 0.694-0.3961 0.7453-0.4308 0.05123-0.03475 0.1603-0.08469 0.2423-0.1109 0.3671-0.1175 1.016-0.4884 1.347-0.7701 0.1744-0.1483 0.2108-0.1636 0.3913-0.1641 0.3897-0.0013 1.006-0.1709 1.49-0.4101 1.018-0.5036 1.834-1.455 2.209-2.577 0.5162-1.546 0.2581-3.19-0.6992-4.453l-0.2554-0.3373 0.04362-0.2093c0.07839-0.376 0.09068-1.035 0.0262-1.405-0.2682-1.538-1.281-2.71-2.667-3.089-0.2251-0.06144-0.4053-0.07841-0.8807-0.08284l-0.5976-0.005647-0.2429-0.1737c-0.651-0.4655-1.388-0.6872-2.158-0.6494-0.2357 0.01158-0.5362 0.04735-0.6678 0.07955l-0.2394 0.05852-0.2638-0.2724c-0.813-0.8394-1.852-1.277-2.907-1.291zm0.1299 7.797c0.0096-0.0019-0.0017 9e-3 0.0055 0.05413 0.0332 0.2072 0.15 1.051 0.2572 1.602 5.62e-4 0.0033 0.0011 0.0066 0.0016 0.0099 0.0072-9.6e-5 0.01333 4e-6 0.02071-1.43e-4 0.1166-0.0024 0.3061-0.05442 0.5303-0.1081 0.3823-0.09151 0.8655-0.1876 1.26-0.04927 0.3514 0.1232 0.6324 0.4323 0.7094 1.096 0.0604 0.5209 0.02907 1.002-0.067 1.429-0.1096 0.4872-0.3033 0.9051-0.5407 1.234-0.2402 0.3329-0.5251 0.5746-0.8131 0.7051-0.7083 0.3211-1.021-0.08659-1.341-0.1025-0.1848-0.0092-0.5295 0.2012-0.9323 0.2099-0.3065 0.0067-0.6468-0.1033-0.9758-0.5154-0.3141-0.3934-0.5426-0.962-0.6544-1.555-0.1144-0.6063-0.1067-1.238 0.05664-1.733 0.2043-0.619 0.652-1.024 1.408-0.8992 0.7812 0.1292 0.7992 0.2634 1.182 0.2857-0.0949-1.199-0.5029-1.639-0.3303-1.638 0.1644 0.0011 0.2111-0.0225 0.2234-0.02495zm2.151 7.576 0.3119 0.1687c0.1716 0.09274 0.4538 0.2096 0.6271 0.2595 0.1734 0.04997 0.3216 0.1099 0.3293 0.1332 0.02254 0.06774-0.2015 0.5157-0.3912 0.782-0.2185 0.3067-0.5738 0.6597-0.7602 0.755-0.1866 0.0954-0.2367 0.0919-0.327-0.02306-0.06534-0.08324-0.07293-0.1362-0.05852-0.4015 0.0091-0.1681 0.02657-0.5686 0.03891-0.8903 0.02218-0.5777 0.02373-0.5859 0.126-0.6841zm1.685 0.608 0.4199 0.02118c0.2309 0.01167 0.4247 0.02521 0.4307 0.03012 0.01826 0.015-0.6469 0.5368-0.9081 0.7123-0.2283 0.1534-0.3963 0.2051-0.4395 0.1351-0.02929-0.04748 0.1041-0.3152 0.3082-0.6182zm-7.936 0.2189c0.3566 0 0.4472 0.01043 0.4472 0.05178 0 0.1064 0.1937 0.7219 0.298 0.9472 0.05941 0.1283 0.1011 0.2333 0.09273 0.2333-0.07903 0-1.285-1.135-1.285-1.209 0-0.01279 0.2012-0.02322 0.4472-0.02322zm0.7682 0.08222c0.0018-5.62e-4 0.0041-2.86e-4 0.0067 0.0011 0.4607 0.2422 0.9677 0.4337 1.313 0.4958 0.1092 0.01963 0.1477 0.05352 0.2236 0.1971 0.1265 0.2393 0.6894 1.095 1.065 1.62 0.1716 0.2395 0.3161 0.4747 0.3213 0.5226 0.01379 0.1272-0.1004 0.1266-0.3469-2e-3 -0.8279-0.4318-1.915-1.252-2.146-1.619-0.1551-0.2463-0.4941-1.197-0.4368-1.215zm3.233 0.4624c0.01252-4.29e-4 0.02065 4.28e-4 0.02322 3e-3 0.01028 0.01026 0.01867 0.3256 0.01867 0.7006 0 0.5229-0.01193 0.6962-0.05115 0.7437-0.0769 0.09314-0.1618 0.0757-0.329-0.06778-0.1937-0.1662-0.365-0.4348-0.495-0.7762-0.1863-0.4894-0.1944-0.4612 0.1422-0.4894 0.1598-0.01335 0.3816-0.04792 0.493-0.07688 0.08358-0.02173 0.1606-0.03572 0.1982-0.03703z"/>
 <path id="apple" d="m11.61 7.495e-4c-0.0483 0.01-0.232 0.1023-0.8794 0.0978-0.6796-5e-3 0.9264 1.73 1.3 6.451-1.506-0.0877-1.576-0.616-4.652-1.125-2.978-0.4927-4.74 1.103-5.544 3.541-0.6429 1.949-0.6734 4.435-0.223 6.823 0.4403 2.334 1.34 4.573 2.577 6.122 1.295 1.623 2.635 2.056 3.841 2.029 1.586-0.0345 2.943-0.8623 3.67-0.8263 1.261 0.0625 2.492 1.668 5.28 0.4034 1.134-0.514 2.256-1.466 3.201-2.777 0.9344-1.295 1.697-2.94 2.128-4.859 0.3782-1.682 0.5021-3.575 0.2643-5.626-0.3029-2.613-1.41-3.829-2.793-4.315-1.553-0.5447-3.456-0.1668-4.961 0.1935-0.8829 0.2114-1.629 0.4168-2.088 0.4261-0.0291 5.9e-4 -0.053-8e-5 -0.0813 3.9e-4l-6e-3 -0.039c-0.4217-2.171-0.8819-5.492-1.013-6.307-0.0285-0.1779 0.0158-0.2206-0.0218-0.2131z"/>
 <path id="recipe" d="m19.2 0h-14.4c-1.32 0-2.4 1.08-2.4 2.4v19.2c0 1.32 1.08 2.4 2.4 2.4h14.4c1.32 0 2.4-1.08 2.4-2.4v-19.2c0-1.32-1.08-2.4-2.4-2.4zm-14.4 2.4h6v9.6l-3-1.8-3 1.8z"/>
 <path id="diary" d="m18 0c-0.66 0-1.2 0.54-1.2 1.2v1.2h-9.6v-1.2c0-0.66-0.54-1.2-1.2-1.2s-1.2 0.54-1.2 1.2v1.2h-1.2c-1.332 0-2.388 1.08-2.388 2.4l-0.012 16.8c0 1.32 1.068 2.4 2.4 2.4h16.8c1.32 0 2.4-1.08 2.4-2.4v-16.8c0-1.32-1.08-2.4-2.4-2.4h-1.2v-1.2c0-0.66-0.54-1.2-1.2-1.2zm2.4 21.6h-16.8v-12h16.8zm-9.6-8.4c0-0.66 0.54-1.2 1.2-1.2s1.2 0.54 1.2 1.2-0.54 1.2-1.2 1.2-1.2-0.54-1.2-1.2zm-4.8 0c0-0.66 0.54-1.2 1.2-1.2s1.2 0.54 1.2 1.2-0.54 1.2-1.2 1.2-1.2-0.54-1.2-1.2zm9.6 0c0-0.66 0.54-1.2 1.2-1.2s1.2 0.54 1.2 1.2-0.54 1.2-1.2 1.2-1.2-0.54-1.2-1.2zm-4.8 4.8c0-0.66 0.54-1.2 1.2-1.2s1.2 0.54 1.2 1.2-0.54 1.2-1.2 1.2-1.2-0.54-1.2-1.2zm-4.8 0c0-0.66 0.54-1.2 1.2-1.2s1.2 0.54 1.2 1.2-0.54 1.2-1.2 1.2-1.2-0.54-1.2-1.2zm9.6 0c0-0.66 0.54-1.2 1.2-1.2s1.2 0.54 1.2 1.2-0.54 1.2-1.2 1.2-1.2-0.54-1.2-1.2z"/>
 <path id="shop" d="m22.91 9.28h-5.225l-4.789-7.167c-0.4364-0.6436-1.385-0.6436-1.811 0l-4.789 7.167h-5.204c-0.6 0-1.091 0.4909-1.091 1.091 0 0.09818 0.01091 0.1964 0.04364 0.2945l2.771 10.11c0.2509 0.9164 1.091 1.593 2.095 1.593h14.18c1.004 0 1.844-0.6764 2.105-1.593l2.771-10.11 0.03273-0.2945c0-0.6-0.4909-1.091-1.091-1.091zm-10.92-4.593 3.065 4.593h-6.131zm0.01091 13.32c-1.2 0-2.182-0.9818-2.182-2.182s0.9818-2.182 2.182-2.182 2.182 0.9818 2.182 2.182-0.9818 2.182-2.182 2.182z"/>
 <path id="forward" d="m12 0-2.115 2.115 8.37 8.385h-18.26v3h18.26l-8.37 8.385 2.115 2.115 12-12z"/>
 <g id="donate">
  <path id="path6882" d="m6.625 3.049 10.72-0.3518v18.46l-10.72 0.3518z" fill="#f2ac05"/>
  <path id="path6884" d="m12-5e-8c-6.624 0-12 5.376-12 12 0 6.624 5.376 12 12 12s12-5.376 12-12c0-6.624-5.376-12-12-12zm1.056 18.91v1.488h-2.1v-1.548c-0.888-0.216-2.868-0.924-3.624-3.552l1.98-0.804c0.072 0.264 0.696 2.508 2.88 2.508 1.116 0 2.376-0.576 2.376-1.932 0-1.152-0.84-1.752-2.736-2.436-1.32-0.468-4.02-1.236-4.02-3.972 0-0.12 0.012-2.88 3.144-3.552v-1.512h2.1v1.488c2.208 0.384 3.012 2.148 3.192 2.676l-1.896 0.804c-0.132-0.42-0.708-1.608-2.28-1.608-0.84 0-2.172 0.444-2.172 1.668 0 1.14 1.032 1.572 3.168 2.28 2.88 0.996 3.612 2.46 3.612 4.14 0 3.156-3 3.756-3.624 3.864z" fill="#13ad73"/>
 </g>
 <g id="nocharge">
  <path id="path6887" d="m12.67 5.2c2.373 0 3.253 1.133 3.333 2.8h2.947c-0.09333-2.293-1.493-4.4-4.28-5.08v-2.92h-4v2.88c-0.7067 0.16-1.373 0.4-1.973 0.72l1.96 1.96c0.5467-0.2267 1.213-0.36 2.013-0.36zm-7.807 0.4838 1.14 2.01c0 2.773 2.08 4.28 5.213 5.213l4.68 4.68c-0.4533 0.64-1.4 1.213-3.227 1.213-2.747 0-3.827-1.227-3.973-2.8h-2.933c0.16 2.92 2.347 4.56 4.907 5.107v2.893h4v-2.867c1.28-0.24 2.427-0.7333 3.267-1.493l2.407 1.297 0.8833-0.4988z" fill="#13ad73"/>
  <path id="path6889" d="m3.107 1.413-1.693 1.693 19.48 19.49 1.693-1.693z" fill="#f2ac05"/>
 </g>
 <g id="devices">
  <path id="path6892" d="m16.74 15.76h-14.86v-11.28h16.92v3.434h1.88v-3.434c0-1.034-0.8462-1.88-1.88-1.88h-16.92c-1.034 0-1.88 0.8462-1.88 1.88v11.28c0 1.034 0.8462 1.88 1.88 1.88h6.582v1.88h-1.88v1.88h7.522v-1.88h-1.88v-1.88h4.52" fill="#13ad73"/>
  <path id="path6894" d="m22.39 7.222h-5.156c-0.8894 0-1.611 0.7218-1.611 1.611v10.96c0 0.8894 0.7218 1.611 1.611 1.611h5.156c0.8894 0 1.611-0.7218 1.611-1.611v-10.96c0-0.8894-0.7218-1.611-1.611-1.611zm-2.578 13.53c-0.5349 0-0.9668-0.4318-0.9668-0.9668 0-0.5349 0.4318-0.9668 0.9668-0.9668s0.9668 0.4318 0.9668 0.9668c0 0.5349-0.4318 0.9668-0.9668 0.9668zm2.9-2.578h-5.801v-9.023h5.801z" fill="#f2ac05"/>
 </g>
 <g id="quality">
  <path id="path6897" d="m4.371 6.438h14.92v11.29h-14.92z" fill="#f2ac05"/>
  <path id="path6899" d="m24 12-2.662-3.044 0.3709-4.025-3.938-0.8945-2.062-3.491-3.709 1.593-3.709-1.593-2.062 3.48-3.938 0.8836 0.3709 4.036-2.662 3.055 2.662 3.044-0.3709 4.036 3.938 0.8945 2.062 3.48 3.709-1.604 3.709 1.593 2.062-3.48 3.938-0.8945-0.3709-4.025zm-14.08 5.149-4.145-4.156 1.615-1.615 2.531 2.542 6.382-6.404 1.615 1.615z" fill="#13ad73"/>
 </g>
 <path id="privacy" d="m12 0.5472-9.386 4.171v6.256c0 5.787 4.005 11.2 9.386 12.51 5.382-1.314 9.386-6.725 9.386-12.51v-6.256z" fill="#13ad73" stroke="#f2ac05"/>
 <g id="github">
  <path id="path6903" d="m24 12a12 12 0 0 1-12 12 12 12 0 0 1-12-12 12 12 0 0 1 12-12 12 12 0 0 1 12 12z" fill="#f2ac05"/>
  <path id="path6905" d="m12 0c-6.63 0-12 5.37-12 12 0 5.31 3.435 9.795 8.205 11.38 0.6 0.105 0.825-0.255 0.825-0.57 0-0.285-0.015-1.23-0.015-2.235-3.015 0.555-3.795-0.735-4.035-1.41-0.135-0.345-0.72-1.41-1.23-1.695-0.42-0.225-1.02-0.78-0.015-0.795 0.945-0.015 1.62 0.87 1.845 1.23 1.08 1.815 2.805 1.305 3.495 0.99 0.105-0.78 0.42-1.305 0.765-1.605-2.67-0.3-5.46-1.335-5.46-5.925 0-1.305 0.465-2.385 1.23-3.225-0.12-0.3-0.54-1.53 0.12-3.18 0 0 1.005-0.315 3.3 1.23 0.96-0.27 1.98-0.405 3-0.405s2.04 0.135 3 0.405c2.295-1.56 3.3-1.23 3.3-1.23 0.66 1.65 0.24 2.88 0.12 3.18 0.765 0.84 1.23 1.905 1.23 3.225 0 4.605-2.805 5.625-5.475 5.925 0.435 0.375 0.81 1.095 0.81 2.22 0 1.605-0.015 2.895-0.015 3.3 0 0.315 0.225 0.69 0.825 0.57 4.74-1.59 8.175-6.09 8.175-11.38 0-6.63-5.37-12-12-12z" fill="#13ad73"/>
 </g>
</svg>
