<svg id="svg8" width="512" height="512" version="1.1" viewBox="0 0 512 512" xmlns="http://www.w3.org/2000/svg">
 <path id="path898" d="m114.6 507.3c13.82-0.8729 90.06-3.083 106.2-3.079h13.49l2.639-5.293c5.191-10.41 10.35-29.57 13.13-48.74 1.811-12.5 1.488-16.68-1.826-23.56-2.528-5.249-11.04-13.06-20.54-18.86-28.38-17.32-51.21-34.77-76.05-58.12-6.673-6.272-9.377-8.209-16.08-11.53-12.37-6.124-20.36-12.88-29.19-24.7-1.45-1.941-1.795-2.038-4.695-1.334-1.722 0.4182-7.18 0.8166-12.13 0.8854-19.6 0.2722-38.18-7.715-52.49-22.56-15.97-16.57-23.43-35.49-23.41-59.37 0.01786-16.86 3.547-29.88 11.93-44 9.617-16.19 27.39-30.13 43.89-34.41 2.517-0.653 4.748-1.36 4.958-1.571 0.2103-0.2107-0.05169-3.078-0.5816-6.371-1.41-8.759-0.556-21.84 1.997-30.61 7.023-24.1 24.96-41.95 48.52-48.31 11.42-3.082 29.45-2.167 40.42 2.049 0.919 0.3533 1.637-0.7202 2.994-4.474 6.21-17.18 18.79-33.75 33.11-43.62 35.65-24.56 80.99-19.9 111.3 11.44l5.539 5.719 5.025-1.229c2.764-0.6762 9.075-1.428 14.02-1.672 16.17-0.7944 31.64 3.865 45.31 13.64l5.1 3.647 12.55 0.1171c9.984 0.09312 13.77 0.4491 18.49 1.739 29.1 7.945 50.37 32.58 56 64.86 1.354 7.764 1.096 21.6-0.5502 29.5l-0.916 4.394 5.367 7.086c20.1 26.54 25.52 61.05 14.68 93.52-7.862 23.55-24.99 43.53-46.38 54.11-10.16 5.023-23.1 8.587-31.28 8.613-3.79 0.0118-4.555 0.333-8.217 3.446-6.958 5.916-20.59 13.71-28.3 16.17-1.722 0.551-4.011 1.599-5.087 2.328-1.076 0.7297-8.119 4.802-15.65 9.05-18.57 10.47-37.53 22.69-48.72 31.39-13.27 10.32-16.83 22.63-14.72 50.94 2.648 35.64 8.059 59.41 16.33 71.75l2.89 4.313 29.4 0.4963c34.14 0.5764 92.53 2.291 93.01 2.731 0.1793 0.166-74.3 0.2503-165.5 0.1877-91.21-0.0631-161.4-0.392-156-0.732zm130.9-101.8c-0.1092-1.007-3.147-5.947-6.75-10.98-7.889-11.01-19.71-28.99-22.37-34.01-1.594-3.014-2.402-3.727-4.695-4.139-7.259-1.304-17.91-5.324-27.58-10.41-1.809-0.9509 5.669 20.15 9.032 25.49 4.859 7.714 27.69 24.94 45.08 34 5.177 2.7 7.575 2.715 7.285 0.0442zm6.168-19.46c0.8235-0.9976 1.074-4.638 1.074-15.62 0-7.875-0.1764-14.5-0.3923-14.71-0.2158-0.2163-2.307 0.1044-4.647 0.7128-2.34 0.6082-7 1.335-10.35 1.616-7.067 0.5907-6.896 0-2.984 10.28 2.73 7.17 6.328 12.81 10.4 16.3 3.513 3.013 5.293 3.38 6.908 1.424zm49.91-15.13c3.913-2 11.37-9.412 15.96-15.85 3.982-5.592 8.688-15 8.214-16.42-0.1628-0.49-3.275-1.75-6.916-2.799-3.641-1.049-9.568-3.501-13.17-5.449l-6.551-3.541-2.173 2.087c-2.148 2.062-2.179 2.234-2.645 14.37-0.2592 6.754-0.6282 15.17-0.8198 18.7-0.3026 5.572-0.1405 6.682 1.232 8.43 1.896 2.415 2.946 2.489 6.867 0.484zm-118.1-5.725c-2.19-4.729-6.256-17.66-6.256-19.89 0-0.8683-1.901-1.089-9.391-1.089-5.165 0-9.391 0.2195-9.391 0.488 0 1.561 25.33 25.39 26.99 25.39 0.1762 0-0.7011-2.206-1.949-4.901zm149.8-9.536c5.487-3.687 19.46-14.65 19.07-14.96-0.126-0.1032-4.197-0.3888-9.046-0.6338l-8.816-0.4452-3.967 5.891c-4.284 6.363-7.088 11.99-6.473 12.98 0.9066 1.47 4.434 0.3864 9.228-2.836z" fill="#13ad73"/>
 <path id="path900" d="m253.9 167.7c-0.2579 0.0513-1.238 0.5454-4.691 0.5216-3.625-0.0248 4.941 9.227 6.934 34.4-8.031-0.4678-8.408-3.285-24.81-5.999-15.88-2.627-25.28 5.883-29.57 18.88-3.429 10.39-3.592 23.66-1.19 36.39 2.348 12.45 7.148 24.39 13.74 32.65 6.909 8.654 14.05 10.96 20.49 10.82 8.459-0.1842 15.7-4.599 19.58-4.407 6.726 0.3331 13.29 8.894 28.17 2.151 6.047-2.741 12.03-7.819 17.08-14.81 4.984-6.907 9.051-15.68 11.35-25.91 2.018-8.972 2.678-19.07 1.41-30-1.616-13.93-7.519-20.42-14.9-23.01-8.286-2.905-18.43-0.8896-26.46 1.032-4.71 1.127-8.69 2.223-11.14 2.273-0.155 3e-3 -0.2829-4.1e-4 -0.4335 2e-3 -0.01-0.0695-0.0197-0.1385-0.0323-0.2078-2.249-11.58-4.704-29.29-5.401-33.64-0.152-0.9486 0.0845-1.177-0.1162-1.137z" fill="#f2ac05" fill-rule="evenodd"/>
</svg>
