<?xml version="1.0" encoding="UTF-8" standalone="no"?>
<svg
   xmlns:dc="http://purl.org/dc/elements/1.1/"
   xmlns:cc="http://creativecommons.org/ns#"
   xmlns:rdf="http://www.w3.org/1999/02/22-rdf-syntax-ns#"
   xmlns:svg="http://www.w3.org/2000/svg"
   xmlns="http://www.w3.org/2000/svg"
   xmlns:sodipodi="http://sodipodi.sourceforge.net/DTD/sodipodi-0.dtd"
   xmlns:inkscape="http://www.inkscape.org/namespaces/inkscape"
   id="icons"
   width="24"
   height="24"
   version="1.1"
   viewBox="0 0 24 24"
   sodipodi:docname="icons.svg"
   inkscape:version="1.0 (4035a4fb49, 2020-05-01)">
  <metadata
     id="metadata23">
    <rdf:RDF>
      <cc:Work
         rdf:about="">
        <dc:format>image/svg+xml</dc:format>
        <dc:type
           rdf:resource="http://purl.org/dc/dcmitype/StillImage" />
        <dc:title />
      </cc:Work>
    </rdf:RDF>
  </metadata>
  <defs
     id="defs867" />
  <sodipodi:namedview
     pagecolor="#ffffff"
     bordercolor="#666666"
     borderopacity="1"
     objecttolerance="10"
     gridtolerance="10"
     guidetolerance="10"
     inkscape:pageopacity="0"
     inkscape:pageshadow="2"
     inkscape:window-width="1920"
     inkscape:window-height="1005"
     id="namedview19"
     showgrid="false"
     inkscape:zoom="24.579195"
     inkscape:cx="20.007207"
     inkscape:cy="11.970859"
     inkscape:window-x="0"
     inkscape:window-y="0"
     inkscape:window-maximized="1"
     inkscape:current-layer="icons"
     inkscape:pagecheckerboard="true"
     inkscape:document-rotation="0" />
  <path
     inkscape:connector-curvature="0"
     d="m 2.9987498,17.25125 v 3.75 H 6.7487502 L 17.80875,9.9412502 14.05875,6.1912498 Z M 20.70875,7.0412498 c 0.39,-0.39 0.39,-1.02 0,-1.41 l -2.34,-2.34 c -0.39,-0.39 -1.02,-0.39 -1.41,0 l -1.83,1.83 3.75,3.7500004 z"
     id="edit" />
  <path
     inkscape:connector-curvature="0"
     d="M 5.3333337,19.777778 C 5.3333337,21 6.3333337,22 7.5555559,22 h 8.8888881 c 1.222222,0 2.222222,-1 2.222222,-2.222222 V 6.4444446 H 5.3333337 Z M 19.777777,3.1111111 H 15.888889 L 14.777777,2 H 9.2222225 L 8.1111114,3.1111111 H 4.2222225 V 5.3333334 H 19.777777 Z"
     id="trash"
     style="stroke-width:1.11111116" />
  <path
     id="done"
     d="M 8.3636364,16.431818 3.5909091,11.659091 2,13.25 8.3636364,19.613637 22,5.9772726 20.409091,4.3863635 Z" />
  <path
     id="close"
     d="M 20,5.6114286 18.388571,4 12,10.388571 5.6114286,4 4,5.6114286 10.388571,12 4,18.388571 5.6114286,20 12,13.611429 18.388571,20 20,18.388571 13.611429,12 Z"
     style="stroke-width:1.14285" />
  <path
     id="more"
     d="m 6,10 c -1.1,0 -2,0.9 -2,2 0,1.1 0.9,2 2,2 1.1,0 2,-0.9 2,-2 0,-1.1 -0.9,-2 -2,-2 z m 12,0 c -1.1,0 -2,0.9 -2,2 0,1.1 0.9,2 2,2 1.1,0 2,-0.9 2,-2 0,-1.1 -0.9,-2 -2,-2 z m -6,0 c -1.1,0 -2,0.9 -2,2 0,1.1 0.9,2 2,2 1.1,0 2,-0.9 2,-2 0,-1.1 -0.9,-2 -2,-2 z" />
  <path
     d="M 18,2.01 6,2 C 4.9,2 4,2.89 4,4 v 16 c 0,1.1 0.9,2 2,2 h 12 c 1.1,0 2,-0.9 2,-2 V 4 C 20,2.89 19.1,2.01 18,2.01 Z M 18,20 H 6 V 10.98 H 18 Z M 18,9 H 6 V 4 H 18 Z M 8,5 h 2 V 8 H 8 Z m 0,7 h 2 v 5 H 8 Z"
     id="pantry" />
  <path
     d="m 17,13 h -5 v 5 h 5 z M 16,2 V 4 H 8 V 2 H 6 V 4 H 5 C 3.89,4 3.01,4.9 3.01,6 L 3,20 c 0,1.1 0.89,2 2,2 h 14 c 1.1,0 2,-0.9 2,-2 V 6 C 21,4.9 20.1,4 19,4 H 18 V 2 Z m 3,18 H 5 V 9 h 14 z"
     id="diary" />
  <path
     d="m 8,18 c -1.1,0 -1.99,0.9 -1.99,2 0,1.1 0.89,2 1.99,2 1.1,0 2,-0.9 2,-2 0,-1.1 -0.9,-2 -2,-2 z M 2,2 v 2 h 2 l 3.6,7.59 -1.35,2.45 C 6.09,14.32 6,14.65 6,15 c 0,1.1 0.9,2 2,2 H 20 V 15 H 8.42 C 8.28,15 8.17,14.89 8.17,14.75 L 8.2,14.63 9.1,13 h 7.45 c 0.75,0 1.41,-0.41 1.75,-1.03 L 21.88,5.48 C 21.96,5.34 22,5.17 22,5 22,4.45 21.55,4 21,4 H 6.21 L 5.27,2 Z m 16,16 c -1.1,0 -1.99,0.9 -1.99,2 0,1.1 0.89,2 1.99,2 1.1,0 2,-0.9 2,-2 0,-1.1 -0.9,-2 -2,-2 z"
     id="cart" />
  <path
     d="M 18,2 H 6 C 4.9,2 4,2.9 4,4 v 16 c 0,1.1 0.9,2 2,2 h 12 c 1.1,0 2,-0.9 2,-2 V 4 C 20,2.9 19.1,2 18,2 Z M 6,4 h 5 v 8 L 8.5,10.5 6,12 Z"
     id="recipe" />
</svg>
